<?xml version="1.0" encoding="utf-8"?>
<!-- Generator: Adobe Illustrator 27.0.0, SVG Export Plug-In . SVG Version: 6.00 Build 0)  -->
<svg version="1.1" id="Layer_1" xmlns="http://www.w3.org/2000/svg" xmlns:xlink="http://www.w3.org/1999/xlink" x="0px" y="0px"
	 viewBox="0 0 24 24" style="enable-background:new 0 0 24 24;" xml:space="preserve">
<path d="M21.7,6.2c-0.3-2.2-2.3-4-4.6-4.4c-0.4-0.1-1.9-0.3-5.3-0.3h0c-3.4,0-4.2,0.2-4.6,0.3C5,2.2,2.9,3.8,2.4,6
	C2.2,7.1,2.2,8.4,2.2,9.5c0.1,1.6,0.1,3.3,0.2,4.9c0.1,1.1,0.3,2.1,0.5,3.2c0.5,1.9,2.4,3.6,4.3,4.2c2,0.7,4.2,0.8,6.3,0.3
	c0.2-0.1,0.5-0.1,0.7-0.2c0.5-0.2,1.1-0.3,1.5-0.7c0,0,0,0,0,0c0,0,0,0,0,0v-1.6c0,0,0,0,0,0c0,0,0,0,0,0s0,0,0,0s0,0,0,0
	c-1.3,0.3-2.7,0.5-4.1,0.5c-2.4,0-3-1.1-3.2-1.6c-0.1-0.4-0.2-0.8-0.3-1.3c0,0,0,0,0,0c0,0,0,0,0,0c0,0,0,0,0,0s0,0,0,0
	c1.3,0.3,2.6,0.5,4,0.5c0.3,0,0.6,0,1,0c1.4,0,2.8-0.1,4.1-0.4c0,0,0.1,0,0.1,0c2.1-0.4,4.1-1.7,4.3-4.9c0-0.1,0-1.3,0-1.5
	C21.7,10.6,21.9,7.8,21.7,6.2z M18.4,14.3h-2.2V8.9c0-1.1-0.5-1.7-1.4-1.7c-1.1,0-1.6,0.7-1.6,2v3h-2.2v-3c0-1.4-0.5-2-1.6-2
	c-1,0-1.4,0.6-1.4,1.7v5.4H5.7V8.7c0-1.1,0.3-2,0.9-2.7C7.2,5.3,8,5,8.9,5c1.1,0,2,0.4,2.6,1.3l0.5,0.9l0.5-0.9
	C13.2,5.4,14,5,15.1,5c1,0,1.8,0.3,2.4,1c0.6,0.7,0.9,1.6,0.9,2.7L18.4,14.3L18.4,14.3z"/>
</svg>
