<?xml version="1.0" encoding="utf-8"?>
<!-- Generator: Adobe Illustrator 27.0.0, SVG Export Plug-In . SVG Version: 6.00 Build 0)  -->
<svg version="1.1" id="svg827" xmlns:svg="http://www.w3.org/2000/svg"
	 xmlns="http://www.w3.org/2000/svg" xmlns:xlink="http://www.w3.org/1999/xlink" x="0px" y="0px" viewBox="0 0 2642.6 2141.4"
	 style="enable-background:new 0 0 2642.6 2141.4;" xml:space="preserve">
<style type="text/css">
	.st0{fill:#231F20;}
	.st1{fill:#FFFFFF;}
</style>
<g id="g1035" transform="translate(227.1218,503.5057)">
	<path id="path1037" class="st0" d="M2403.7,354.8c-0.1-27.7-11.6-54.1-31.9-72.9c-20.3-18.8-47.5-28.3-75.1-26.3l-180,13.2
		l1.4-39.9c0.9-27.1-9.2-53.5-28.2-72.9c-3.3-3.4-6.8-6.5-10.5-9.4l-0.1-5.1c19.4-18.2,31.4-44.1,31.4-72.6v-98.6
		c0-27.9-11.7-54.5-32.3-73.4c-20.6-18.9-48.1-28.3-75.9-25.9l-208.3,17.7c-28,2.4-52.2,16.2-68.7,36.4c-5.2-10.6-12.2-20.4-21-28.7
		c-19.9-18.8-46.7-28.7-74-27.1l-119,6.6l2.3-57.5l84.5-131.6c15.8-24.6,20-54.9,11.5-82.8c-8.5-28-28.8-50.8-55.6-62.5l-84.5-36.8
		c-35.1-15.3-74.6-8.8-102.8,14.2c-24.3-16.7-55.6-22.3-85.5-13.2c-15.9,4.9-37.7,11.5-56,17.1c-12.3-4.7-25.5-7.1-38.9-6.7
		l-113.8,3.3c-8.2,0.2-16.3,1.5-24,3.6c-16.3-9.1-35.2-13.7-54.7-12.5l-120,7.4c-51.8,3.2-92.5,45.6-93.6,97.5l-3.7,178.9
		c-17.7-1.1-35,1.3-50.3,5.6c-28-10-58.3-10.3-85.9-0.2c-32.2,11.7-58.9,37.2-73.2,69.9c-2.7,6.1-4.9,12.3-6.6,18.7
		c-16.8-15.2-38.7-24.8-63.1-25.7l-132.3-4.9c-54.6-1.8-100.6,40.2-103.3,94.7c-5.8,117.2-7.2,209.5-4.2,276.6
		c-123.7-19-243.2-2.5-332.8,48.6c-97.7,55.7-160,158.8-151.5,250.8c6.6,71,51.2,127.8,123.4,158.1l22.1,342.5
		c1.7,26.7,14.1,51.5,34.3,69c18.2,15.7,41.3,24.3,65.2,24.3c2.7,0,5.3-0.1,8-0.3l193.4-15.5c-0.4,1.6-0.9,3.2-1.3,4.8
		c-23.6,97.1,7.4,233.8,77.1,340.1c64.3,98.1,152.5,159.2,254.9,176.9c37.3,6.4,71.9,9.7,104.6,9.7c117.6,0,208.6-42.9,298.2-136.7
		c81.5-85.3,105.5-206.2,60.9-303.3c21.7,5.9,44.9,13.3,69.5,22.5c46.4,17.3,88.8,34.5,129.7,51.1
		c192.7,78.1,344.9,139.7,616.1,98.7c185.9-28.1,327.4-117.9,420.6-266.6c74.6-119,105.7-253.3,128.3-380.6
		C2403.8,580.9,2403.7,364,2403.7,354.8"/>
</g>
<g id="g1039" transform="translate(61.4773,481.0471)">
	<path id="path1041" class="st1" d="M360.7,676.7l-13.6-183.3c0,0,40.7-6.8,75.1,15c24.8,15.7,55.9,70.7,35.2,115.7
		C437.1,668.3,360.7,676.7,360.7,676.7 M652.4,709.3c54.1-113.2-14.8-295.2-157.4-339.5s-272.7-30-354.9,16.8
		C43,441.9-16.6,576.5,111.3,620.7c0,0-3.4-84.8,39-101.8l33.9,526l197.6-15.9L370.9,860C370.9,860,598.3,822.4,652.4,709.3"/>
</g>
<g id="g1043" transform="translate(93.4582,507.7739)">
	<path id="path1045" class="st1" d="M755.1,293.7V173.6l-127.4-9.8V-42.1L495.4-47c0,0-14.7,296.5,4.9,348L755.1,293.7z"/>
</g>
<g id="g1047" transform="translate(105.4056,524.8679)">
	<path id="path1049" class="st1" d="M902.5,48.6l-90.7,2.5l-7.3,225.5l100.5-7.3L902.5,48.6z"/>
</g>
<g id="g1051" transform="translate(117.1692,507.5901)">
	<path id="path1053" class="st1" d="M1047.6,296.3l102.9,2.5l7.3-183.8l88.2-2.4L1251-2.7L961.8-7.6v132.3l93.1-4.9L1047.6,296.3z"
		/>
</g>
<g id="g1055" transform="translate(141.4316,506.9369)">
	<path id="path1057" class="st1" d="M1346.8,305.7l115.2,2.6l4.9-191.6l76,2.4l-2.4-127h-257.3l-2.5,119.2l73.5,4L1346.8,305.7z"/>
</g>
<g id="g1059" transform="translate(160.1798,531.9342)">
	<path id="path1061" class="st1" d="M1578-52.6c0,0-12.3,266.6,0,340.1l257.3-12.3l-4.9-94.5l-127.4-4.9V-59.6L1578-52.6z"/>
</g>
<g id="g1063" transform="translate(198.0439,507.8453)">
	<path id="path1065" class="st1" d="M2045,292.6l2.5-71.4l-107.8,0.7l-2.5-37.8l72-5.7l-0.9-75.9h-66.2l-2.4-34l100.5-3.8V-34
		l-208.3,17.7l12.3,310.3L2045,292.6z"/>
</g>
<g id="g1067" transform="translate(120.1421,536.754)">
	<path id="path1069" class="st1" d="M1084.2-121.7c0-7.4,8.3-120.1,8.3-120.1l43.5,31.9l53.1-44.1l3.3,134l106.5,5.7l-2.4-303.1
		l-113.8,3.3l-37.4,71.9l-38.1-80.9l-120,7.3l-6.1,299C981-116.8,1084.2-114.4,1084.2-121.7"/>
</g>
<g id="g1071" transform="translate(144.0984,536.8765)">
	<path id="path1073" class="st1" d="M1379.7-123.5h113.8l4.9-122.5l99.2-154.4l-84.5-36.8l-65,114.4l-54.5-109.5
		c0,0-80.5,24.5-87.8,26.9l80.5,161.8L1379.7-123.5z"/>
</g>
<g id="g1075" transform="translate(99.8507,530.0265)">
	<path id="path1077" class="st1" d="M834-25.3c8.3,7.6,19.3,14.2,27.9,20.3c22.9-24.9,55.2-57.2,58.8-96.4
		c0.7-7.4-0.7-21.8-11.9-28.5c-8.4-5.1-25-2.6-34,1.4c-7.6,3.3-16,13.2-22.9,24.9c-4.2-8-11.8-16.7-21.5-23.8
		c-8.1-5.9-19-9.2-28.4-5.8c-7.4,2.7-12.8,9.1-15.8,16.1c-7.5,17.3-2.2,37.9,8.8,53.4C805.9-48.1,819.8-38.2,834-25.3"/>
</g>
<g id="g1079" transform="translate(151.4672,486.1227)">
	<path id="path1081" class="st1" d="M1470.6,604l-98.4-187.7l-171.3-2.3c-2.5,18.6-7.9,341.5-5,450.2c2.5,95.3,2.9,89.5,2.9,89.5
		s42.9,19.9,83.1,37.5c40.3,17.6,96.7,37.2,96.7,37.2l3.8-246.5l188.2,282.3c0,0,42.1,6.5,86.7,3.4c56.3-3.9,77.8-8.6,77.8-8.6
		l-17.4-658h-186.5c0,0,5,309.9,7.5,319.2C1541.2,729.5,1470.6,604,1470.6,604"/>
</g>
<g id="g1083" transform="translate(104.8597,493.2498)">
	<path id="path1085" class="st1" d="M895.8,501.8c3.4-7.8,9.4-14.9,17.6-17.9c10.5-3.8,22.6-0.2,31.5,6.4
		c10.8,7.9,19.2,17.6,23.9,26.5c7.7-13,16.9-23.9,25.4-27.7c10-4.4,28.5-7.2,37.8-1.5c12.4,7.5,14,23.5,13.2,31.7
		c-3.9,43.5-39.9,79.4-65.3,107.1c-9.5-6.8-21.7-14.1-31-22.6c-15.7-14.3-31.2-25.3-43.4-42.6C893.3,543.9,887.4,521,895.8,501.8
		 M683.4,588.4c1.3,113.2,79,267.8,254.9,267.8c163.1,0,286.8-195.8,209-361C1078,348.4,935.7,338.4,826.1,380.1
		C764.3,403.6,682,469.5,683.4,588.4"/>
</g>
<g id="g1087" transform="translate(219.6454,503.4901)">
	<path id="path1089" class="st1" d="M2311.5,355.1l-199.9,14.7c0,0-12.8,294.3-51.5,340.7c-44.9,53.9-110.3,36.8-127.4-105.4
		c-17.2-142.1-19.6-227.9-19.6-227.9l-176.5,4.9c0,0,0.8,134,17.2,281.8c10.3,93.5,35.4,206.3,106.5,250.4
		c37.4,23.2,138.6,31.4,168,4.4c0,0-98.3,154.1-272,201c-136.6,36.8-282.3,43.4-497.5-44.1c-209.3-85.1-399.9-179-594.3-179
		c-171.5,0-305.6,91.3-341.3,238.1c-27.4,112.6,58.8,361.9,252.1,395.2c129.8,22.4,217.9,2.8,313.8-97.6
		c101.7-106.4,55.6-273.8-79.4-258c0,0,63.5,59.5,11.9,111.1c-51.6,51.6-135.3,29.5-136.3-82.5c-1-112,178.9-174,441.1-76
		c262.2,98,397.6,189.8,696,144.6c354-53.6,426.8-347,465.7-566.1C2311.9,570.6,2311.5,355.1,2311.5,355.1"/>
</g>
</svg>
