<svg xmlns="http://www.w3.org/2000/svg"  viewBox="0 0 24 24" width="24px" height="24px"><path d="M 12 2 C 6.82 2 2.5507812 5.95 2.0507812 11 L 7.0195312 13.759766 C 7.5495313 13.289766 8.24 13 9 13 C 9.03 13 9.0500781 13.009766 9.0800781 13.009766 C 9.6800781 12.089766 10.449766 10.919609 11.009766 10.099609 C 11.009766 10.059609 11 10.03 11 10 C 11 8.93 11.419922 7.9299219 12.169922 7.1699219 C 13.679922 5.6599219 16.320078 5.6599219 17.830078 7.1699219 C 18.580078 7.9299219 19 8.93 19 10 C 19 11.07 18.580078 12.070078 17.830078 12.830078 C 17.070078 13.580078 16.07 14 15 14 C 14.97 14 14.930391 13.990234 14.900391 13.990234 C 14.080391 14.550234 12.910234 15.319922 11.990234 15.919922 C 11.990234 15.949922 12 15.97 12 16 C 12 17.66 10.66 19 9 19 C 7.34 19 6 17.66 6 16 C 6 15.83 6.0107812 15.66 6.0507812 15.5 L 2.0898438 13.300781 C 2.7198438 18.210781 6.92 22 12 22 C 17.52 22 22 17.52 22 12 C 22 6.48 17.52 2 12 2 z M 6.0507812 15.5 L 8.5097656 16.869141 C 8.6697656 16.959141 8.83 17 9 17 C 9.35 17 9.6891406 16.810234 9.8691406 16.490234 C 10.139141 16.000234 9.9702344 15.390859 9.4902344 15.130859 L 7.0195312 13.759766 C 6.5095312 14.189766 6.1607813 14.81 6.0507812 15.5 z M 15 8 A 2 2 0 0 0 15 12 A 2 2 0 0 0 15 8 z"/></svg>